<?xml version="1.0" encoding="utf-8"?>
<!-- Generator: Adobe Illustrator 16.0.0, SVG Export Plug-In . SVG Version: 6.00 Build 0)  -->
<!DOCTYPE svg PUBLIC "-//W3C//DTD SVG 1.1//EN" "http://www.w3.org/Graphics/SVG/1.1/DTD/svg11.dtd">
<svg version="1.1" id="Layer_1" xmlns="http://www.w3.org/2000/svg" xmlns:xlink="http://www.w3.org/1999/xlink" x="0px" y="0px"
	 width="600px" height="600px" viewBox="0 0 600 600" enable-background="new 0 0 600 600" xml:space="preserve">
<linearGradient id="SVGID_1_" gradientUnits="userSpaceOnUse" x1="297.77" y1="467.5508" x2="297.77" y2="133.4478">
	<stop  offset="0" style="stop-color:#F15A29"/>
	<stop  offset="1" style="stop-color:#AB1640"/>
</linearGradient>
<circle fill="url(#SVGID_1_)" cx="297.77" cy="300.499" r="167.052"/>
<g>
	<path fill="#FFFFFF" d="M187.397,352.939h-5.161V240.734h20.144c8.99,0,15.591,2.442,19.811,7.325
		c4.216,4.885,6.326,12.21,6.326,21.975c0,9.768-2.109,17.092-6.326,21.975c-4.219,4.885-10.821,7.325-19.811,7.325h-14.982V352.939
		z M187.397,294.173h14.982c7.325,0,12.652-1.886,15.981-5.661c3.218-3.883,4.828-10.043,4.828-18.479
		c0-8.657-1.61-14.843-4.828-18.563c-3.22-3.717-8.547-5.577-15.981-5.577h-14.982V294.173z"/>
	<path fill="#FFFFFF" d="M240.834,352.939V240.734h5.161v112.205H240.834z"/>
	<path fill="#FFFFFF" d="M280.455,352.939c-2.776,0-5.577-0.388-8.407-1.166c-2.83-0.775-5.411-2.272-7.741-4.495
		c-2.331-2.218-4.219-5.243-5.66-9.071c-1.443-3.831-2.165-8.851-2.165-15.068v-52.772c0-6.102,0.721-11.097,2.165-14.983
		c1.441-3.883,3.33-6.909,5.66-9.072c2.331-2.165,4.911-3.634,7.741-4.412c2.83-0.775,5.631-1.165,8.407-1.165
		c2.663,0,5.411,0.39,8.24,1.165c2.83,0.778,5.41,2.248,7.742,4.412c2.332,2.164,4.217,5.189,5.661,9.072
		c1.44,3.886,2.162,8.881,2.162,14.983v2.664h-5.326v-2.664c0-8.545-1.556-14.759-4.663-18.645
		c-3.219-3.884-7.824-5.827-13.816-5.827c-6.105,0-10.767,1.943-13.984,5.827c-3.108,3.886-4.661,10.1-4.661,18.645v52.772
		c0,8.549,1.608,14.817,4.828,18.813c2.997,3.886,7.601,5.827,13.818,5.827c5.993,0,10.598-1.941,13.816-5.827
		c3.107-4.104,4.663-10.377,4.663-18.813v-2.662h5.326v2.662c0,6.218-0.722,11.237-2.162,15.068
		c-1.443,3.828-3.329,6.854-5.661,9.071c-2.332,2.223-4.912,3.72-7.742,4.495C285.866,352.552,283.118,352.939,280.455,352.939z"/>
	<path fill="#FFFFFF" d="M372.182,245.895h-26.969v106.878h-5.16V245.895H313.25v-5.327h58.932V245.895z"/>
	<path fill="#FFFFFF" d="M404.644,352.939c-2.663,0-5.411-0.388-8.241-1.166c-2.83-0.775-5.41-2.272-7.74-4.495
		c-2.331-2.218-4.221-5.243-5.661-9.071c-1.443-3.831-2.165-8.851-2.165-15.068v-52.772c0-9.544,1.941-16.869,5.826-21.974
		c4.107-5.104,10.1-7.658,17.981-7.658c7.99,0,13.984,2.554,17.979,7.658c3.995,4.994,5.994,12.319,5.994,21.974v52.772
		c0,6.218-0.725,11.237-2.165,15.068c-1.444,3.828-3.33,6.854-5.661,9.071c-2.33,2.223-4.909,3.72-7.74,4.495
		C410.22,352.552,407.417,352.939,404.644,352.939z M404.644,245.895c-6.328,0-10.934,1.943-13.819,5.827
		c-3.219,4.107-4.826,10.321-4.826,18.645v52.772c0,8.437,1.607,14.709,4.826,18.813c2.998,3.886,7.603,5.827,13.819,5.827
		c6.103,0,10.762-1.941,13.984-5.827c3.105-3.884,4.659-10.156,4.659-18.813v-52.772c0-8.545-1.554-14.759-4.659-18.645
		C415.52,247.838,410.856,245.895,404.644,245.895z"/>
</g>
<g>
	<g>
		<linearGradient id="SVGID_2_" gradientUnits="userSpaceOnUse" x1="78.5776" y1="300.499" x2="452.7617" y2="300.499">
			<stop  offset="0" style="stop-color:#F15A29"/>
			<stop  offset="1" style="stop-color:#AB1640"/>
		</linearGradient>
		<path fill="url(#SVGID_2_)" d="M297.77,519.691c-58.549,0-113.592-22.801-154.992-64.2c-41.4-41.399-64.201-96.444-64.201-154.992
			c0-58.549,22.8-113.592,64.2-154.992c41.4-41.4,96.445-64.201,154.993-64.201c58.548,0,113.592,22.8,154.992,64.201l-3.531,3.531
			c-40.456-40.457-94.245-62.737-151.46-62.737c-57.214,0-111.004,22.281-151.461,62.737
			c-40.457,40.457-62.737,94.246-62.737,151.461s22.281,111.004,62.738,151.461c40.457,40.456,94.246,62.737,151.46,62.737
			c57.215,0,111.004-22.281,151.46-62.737l3.531,3.531C411.362,496.891,356.318,519.691,297.77,519.691z"/>
	</g>
	<g>
		<path fill="#155D77" d="M297.77,503.406v-4.994c109.131,0,197.915-88.783,197.915-197.914
			c0-109.129-88.783-197.913-197.915-197.914c-52.865,0-102.565,20.586-139.946,57.967s-57.967,87.082-57.966,139.946h-4.995
			c0-54.199,21.105-105.154,59.429-143.478c38.324-38.324,89.279-59.43,143.478-59.43c111.883,0.001,202.909,91.025,202.909,202.908
			C500.679,412.383,409.653,503.406,297.77,503.406z"/>
	</g>
	<g>
		<g>
			<linearGradient id="SVGID_3_" gradientUnits="userSpaceOnUse" x1="96.6606" y1="490.5127" x2="287.1315" y2="490.5127">
				<stop  offset="0" style="stop-color:#F15A29"/>
				<stop  offset="1" style="stop-color:#AB1640"/>
			</linearGradient>
			<path fill="url(#SVGID_3_)" d="M278.815,498.838c-0.122,0-0.243-0.001-0.366-0.008c-4.47-0.145-8.049-3.814-8.049-8.319
				c0-4.598,3.727-8.323,8.324-8.323c0.164,0,0.41,0.008,0.572,0.018c4.589,0.27,8.091,4.209,7.821,8.799
				C286.856,495.426,283.188,498.838,278.815,498.838z"/>
		</g>
		<g>
			<linearGradient id="SVGID_4_" gradientUnits="userSpaceOnUse" x1="99.8745" y1="418.3438" x2="286.3723" y2="418.3438">
				<stop  offset="0" style="stop-color:#F15A29"/>
				<stop  offset="1" style="stop-color:#AB1640"/>
			</linearGradient>
			<path fill="url(#SVGID_4_)" d="M245.705,494.12c-0.636,0-1.282-0.074-1.929-0.229l-0.191-0.045
				c-4.468-1.083-7.211-5.583-6.128-10.051c1.083-4.469,5.582-7.213,10.051-6.129c4.471,1.068,7.298,5.575,6.23,10.046
				C252.825,491.535,249.457,494.12,245.705,494.12z M213.948,483.398c-1.129,0-2.277-0.23-3.375-0.719l3.38-7.606l-3.418,7.591
				c-4.186-1.838-6.147-6.722-4.345-10.922c1.802-4.201,6.615-6.178,10.829-4.412l0.314,0.136c4.201,1.868,6.092,6.786,4.226,10.987
				C220.181,481.555,217.137,483.398,213.948,483.398z M184.656,467.185c-1.602,0-3.221-0.456-4.649-1.407l-0.359-0.247
				c-3.741-2.672-4.607-7.87-1.935-11.611c2.671-3.742,7.871-4.61,11.612-1.935c3.824,2.549,4.817,7.688,2.267,11.514
				C189.992,465.896,187.349,467.185,184.656,467.185z M158.632,445.946c-2.085,0-4.17-0.784-5.783-2.362l-0.18-0.179
				c-3.25-3.25-3.25-8.521,0-11.771c3.251-3.252,8.521-3.252,11.772,0c3.284,3.216,3.367,8.514,0.15,11.798
				C162.956,445.104,160.793,445.946,158.632,445.946z M136.999,420.287c-2.595,0-5.138-1.218-6.743-3.521l-0.095-0.137
				c-2.627-3.771-1.699-8.959,2.074-11.588c3.772-2.624,8.959-1.697,11.587,2.074c2.627,3.771,1.746,9.029-2.025,11.656
				C140.328,419.793,138.653,420.287,136.999,420.287z M120.655,391.081c-3.158,0-6.169-1.804-7.555-4.874l-0.108-0.242
				c-1.843-4.211,0.077-9.119,4.29-10.963c4.207-1.84,9.119,0.078,10.961,4.29c1.893,4.189,0.044,9.151-4.146,11.044
				C122.979,390.842,121.807,391.081,120.655,391.081z M109.827,359.331c-3.74,0-7.123-2.513-8.045-6.313l-0.052-0.217
				c-1.053-4.476,1.722-8.956,6.196-10.01c4.468-1.059,8.956,1.721,10.009,6.196c1.083,4.467-1.647,9.021-6.115,10.105
				C111.152,359.254,110.484,359.331,109.827,359.331z"/>
		</g>
		<g>
			<linearGradient id="SVGID_5_" gradientUnits="userSpaceOnUse" x1="96.6616" y1="317.8184" x2="287.1333" y2="317.8184">
				<stop  offset="0" style="stop-color:#F15A29"/>
				<stop  offset="1" style="stop-color:#AB1640"/>
			</linearGradient>
			<path fill="url(#SVGID_5_)" d="M104.984,326.181c-4.446,0-8.122-3.508-8.312-7.968c-0.233-4.563,3.259-8.475,7.828-8.741
				c4.566-0.27,8.524,3.226,8.793,7.813c0.005,0.081,0.013,0.245,0.016,0.326c0.135,4.597-3.481,8.432-8.076,8.566
				C105.151,326.18,105.067,326.181,104.984,326.181z"/>
		</g>
	</g>
	<g>
		<path fill="#8C1F4C" d="M298.153,535.839c-20.434,0.001-41-2.687-61.268-8.116c-60.693-16.264-111.42-55.189-142.838-109.604
			s-39.763-117.809-23.5-178.502c16.262-60.694,55.188-111.421,109.604-142.838l2.497,4.325
			c-53.262,30.75-91.36,80.401-107.278,139.806c-15.918,59.405-7.75,121.452,23.001,174.713
			c30.751,53.261,80.401,91.358,139.806,107.276c59.406,15.919,121.455,7.748,174.715-23.001
			c53.259-30.751,91.356-80.401,107.274-139.806c15.918-59.406,7.748-121.453-23.001-174.713l4.324-2.497
			c31.418,54.415,39.765,117.809,23.502,178.502c-16.264,60.694-55.188,111.422-109.603,142.838
			C379.144,525.147,338.914,535.839,298.153,535.839z"/>
	</g>
	<g>
		<linearGradient id="SVGID_6_" gradientUnits="userSpaceOnUse" x1="55.1279" y1="300.501" x2="549.0771" y2="300.501">
			<stop  offset="0" style="stop-color:#F15A29"/>
			<stop  offset="1" style="stop-color:#AB1640"/>
		</linearGradient>
		<path fill="url(#SVGID_6_)" d="M298.178,551.81c-21.821,0-43.785-2.869-65.426-8.668l1.292-4.825
			c63.525,17.022,129.871,8.286,186.827-24.595c56.953-32.881,97.693-85.974,114.713-149.498
			c17.021-63.522,8.286-129.871-24.595-186.825c-32.882-56.954-85.976-97.693-149.5-114.715
			c-63.521-17.021-129.871-8.285-186.825,24.597c-56.953,32.883-97.692,85.976-114.713,149.5l-4.824-1.292
			c17.365-64.812,58.932-118.982,117.04-152.531c58.111-33.55,125.803-42.461,190.616-25.096
			c64.813,17.366,118.982,58.932,152.531,117.041s42.461,125.804,25.095,190.616c-17.366,64.812-58.934,118.981-117.041,152.53
			C384.663,540.394,341.704,551.809,298.178,551.81z"/>
	</g>
	<path fill="#155D77" d="M490.05,163.711c0,5.517-4.473,9.989-9.988,9.989l0,0c-5.517,0-9.988-4.472-9.988-9.989l0,0
		c0-5.517,4.472-9.989,9.988-9.989l0,0C485.577,153.723,490.05,158.194,490.05,163.711L490.05,163.711z"/>
</g>
</svg>
