<?xml version="1.0" encoding="utf-8"?>
<!-- Generator: Adobe Illustrator 16.0.0, SVG Export Plug-In . SVG Version: 6.00 Build 0)  -->
<!DOCTYPE svg PUBLIC "-//W3C//DTD SVG 1.1//EN" "http://www.w3.org/Graphics/SVG/1.1/DTD/svg11.dtd">
<svg version="1.1" id="Layer_1" xmlns="http://www.w3.org/2000/svg" xmlns:xlink="http://www.w3.org/1999/xlink" x="0px" y="0px"
	 width="612px" height="792px" viewBox="0 0 612 792" enable-background="new 0 0 612 792" xml:space="preserve">
<linearGradient id="SVGID_1_" gradientUnits="userSpaceOnUse" x1="313.5" y1="464.8457" x2="313.5" y2="264.1548">
	<stop  offset="0" style="stop-color:#F15A29"/>
	<stop  offset="1" style="stop-color:#AB1640"/>
</linearGradient>
<circle fill="url(#SVGID_1_)" cx="313.5" cy="364.5" r="100.346"/>
<g>
	<path fill="#FFFFFF" d="M247.2,396h-3.1v-67.4h12.1c5.4,0,9.365,1.467,11.9,4.4c2.533,2.935,3.8,7.334,3.8,13.2
		c0,5.867-1.267,10.267-3.8,13.2c-2.535,2.935-6.5,4.4-11.9,4.4h-9V396z M247.2,360.7h9c4.4,0,7.6-1.133,9.6-3.4
		c1.933-2.333,2.9-6.033,2.9-11.1c0-5.2-0.967-8.916-2.9-11.15c-1.934-2.232-5.134-3.35-9.6-3.35h-9V360.7z"/>
	<path fill="#FFFFFF" d="M279.299,396v-67.4h3.1V396H279.299z"/>
	<path fill="#FFFFFF" d="M303.099,396c-1.667,0-3.35-0.233-5.05-0.7c-1.7-0.465-3.25-1.365-4.65-2.7c-1.4-1.333-2.534-3.15-3.4-5.45
		c-0.867-2.3-1.3-5.315-1.3-9.05v-31.7c0-3.666,0.433-6.666,1.3-9c0.866-2.333,2-4.15,3.4-5.45c1.4-1.3,2.95-2.183,4.65-2.65
		c1.7-0.465,3.383-0.7,5.05-0.7c1.6,0,3.25,0.234,4.95,0.7c1.7,0.467,3.25,1.35,4.65,2.65c1.4,1.3,2.533,3.117,3.4,5.45
		c0.865,2.334,1.299,5.334,1.299,9v1.6h-3.199v-1.6c0-5.133-0.935-8.866-2.801-11.2c-1.934-2.333-4.7-3.5-8.299-3.5
		c-3.667,0-6.467,1.167-8.4,3.5c-1.867,2.334-2.8,6.067-2.8,11.2v31.7c0,5.134,0.966,8.9,2.9,11.3c1.8,2.334,4.566,3.5,8.3,3.5
		c3.6,0,6.366-1.166,8.299-3.5c1.866-2.465,2.801-6.233,2.801-11.3v-1.6h3.199v1.6c0,3.734-0.434,6.75-1.299,9.05
		c-0.867,2.3-2,4.117-3.4,5.45c-1.4,1.334-2.95,2.234-4.65,2.7C306.349,395.767,304.699,396,303.099,396z"/>
	<path fill="#FFFFFF" d="M358.198,331.7h-16.2v64.2h-3.1v-64.2h-16.1v-3.2h35.399V331.7z"/>
	<path fill="#FFFFFF" d="M377.697,396c-1.6,0-3.25-0.233-4.95-0.7c-1.7-0.465-3.25-1.365-4.649-2.7c-1.4-1.333-2.535-3.15-3.4-5.45
		c-0.867-2.3-1.301-5.315-1.301-9.05v-31.7c0-5.733,1.166-10.133,3.5-13.2c2.467-3.066,6.066-4.6,10.801-4.6
		c4.8,0,8.4,1.534,10.8,4.6c2.399,3,3.601,7.4,3.601,13.2v31.7c0,3.734-0.436,6.75-1.301,9.05c-0.867,2.3-2,4.117-3.4,5.45
		c-1.399,1.334-2.949,2.234-4.649,2.7C381.047,395.767,379.363,396,377.697,396z M377.697,331.7c-3.801,0-6.567,1.167-8.301,3.5
		c-1.934,2.467-2.899,6.2-2.899,11.2v31.7c0,5.067,0.966,8.834,2.899,11.3c1.801,2.334,4.566,3.5,8.301,3.5
		c3.666,0,6.465-1.166,8.4-3.5c1.865-2.333,2.799-6.1,2.799-11.3v-31.7c0-5.133-0.934-8.866-2.799-11.2
		C384.23,332.867,381.43,331.7,377.697,331.7z"/>
</g>
<g>
	<linearGradient id="SVGID_2_" gradientUnits="userSpaceOnUse" x1="181.834" y1="364.5" x2="406.6016" y2="364.5">
		<stop  offset="0" style="stop-color:#F15A29"/>
		<stop  offset="1" style="stop-color:#AB1640"/>
	</linearGradient>
	<path fill="none" stroke="url(#SVGID_2_)" stroke-width="3" stroke-miterlimit="10" d="M405.541,456.541
		c-50.833,50.833-133.25,50.833-184.082,0c-50.833-50.833-50.833-133.25,0-184.082c50.833-50.833,133.25-50.833,184.083,0"/>
	<path fill="none" stroke="#155D77" stroke-width="3" stroke-miterlimit="10" d="M193.117,364.5
		c-0.001-66.487,53.896-120.384,120.383-120.384c66.486,0,120.385,53.898,120.385,120.384c0,66.487-53.897,120.384-120.385,120.384"
		/>
	<g>
		<g>
			<linearGradient id="SVGID_3_" gradientUnits="userSpaceOnUse" x1="192.6914" y1="478.6387" x2="307.1096" y2="478.6387">
				<stop  offset="0" style="stop-color:#F15A29"/>
				<stop  offset="1" style="stop-color:#AB1640"/>
			</linearGradient>
			<path fill="none" stroke="url(#SVGID_3_)" stroke-width="10" stroke-linecap="round" stroke-miterlimit="10" d="M302.109,478.64
				c-0.017-0.001-0.033-0.002-0.051-0.002"/>
			<linearGradient id="SVGID_4_" gradientUnits="userSpaceOnUse" x1="192.6968" y1="430.3584" x2="307.1094" y2="430.3584">
				<stop  offset="0" style="stop-color:#F15A29"/>
				<stop  offset="1" style="stop-color:#AB1640"/>
			</linearGradient>
			
				<path fill="none" stroke="url(#SVGID_4_)" stroke-width="10" stroke-linecap="round" stroke-miterlimit="10" stroke-dasharray="0.1003,20.0601" d="
				M282.228,475.805c-26.586-6.355-50.681-22.628-66.007-45.436c-9.136-13.595-15.144-29.257-17.522-45.457"/>
			<linearGradient id="SVGID_5_" gradientUnits="userSpaceOnUse" x1="192.6968" y1="374.9023" x2="307.1094" y2="374.9023">
				<stop  offset="0" style="stop-color:#F15A29"/>
				<stop  offset="1" style="stop-color:#AB1640"/>
			</linearGradient>
			<path fill="none" stroke="url(#SVGID_5_)" stroke-width="10" stroke-linecap="round" stroke-miterlimit="10" d="M197.699,374.927
				c0-0.017-0.001-0.033-0.002-0.05"/>
		</g>
	</g>
	<path fill="none" stroke="#8C1F4C" stroke-width="3" stroke-miterlimit="10" d="M434.573,294.598
		c38.606,66.867,15.695,152.371-51.171,190.976c-66.868,38.607-152.371,15.694-190.977-51.172
		c-38.606-66.868-15.695-152.37,51.173-190.976"/>
	<linearGradient id="SVGID_6_" gradientUnits="userSpaceOnUse" x1="167.748" y1="364.501" x2="464.4287" y2="364.501">
		<stop  offset="0" style="stop-color:#F15A29"/>
		<stop  offset="1" style="stop-color:#AB1640"/>
	</linearGradient>
	<path fill="none" stroke="url(#SVGID_6_)" stroke-width="3" stroke-miterlimit="10" d="M169.197,325.836
		c21.354-79.696,103.272-126.992,182.967-105.638c79.697,21.354,126.991,103.273,105.637,182.968
		c-21.354,79.696-103.271,126.991-182.968,105.636"/>
	<path fill="#155D77" d="M429,282.333c0,3.314-2.687,6-6,6l0,0c-3.313,0-6-2.686-6-6l0,0c0-3.314,2.687-6,6-6l0,0
		C426.313,276.333,429,279.02,429,282.333L429,282.333z"/>
</g>
</svg>
